<svg width="48" height="48" viewBox="0 0 48 48" fill="none" xmlns="http://www.w3.org/2000/svg">
<path d="M36 32C37.5913 32 39.1174 32.6321 40.2426 33.7574C41.3679 34.8826 42 36.4087 42 38C42 39.5913 41.3679 41.1174 40.2426 42.2426C39.1174 43.3679 37.5913 44 36 44C34.4087 44 32.8826 43.3679 31.7574 42.2426C30.6321 41.1174 30 39.5913 30 38C30 36.4087 30.6321 34.8826 31.7574 33.7574C32.8826 32.6321 34.4087 32 36 32ZM31 8C33.3869 8 35.6761 8.94821 37.364 10.636C39.0518 12.3239 40 14.6131 40 17C40 19.3869 39.0518 21.6761 37.364 23.364C35.6761 25.0518 33.3869 26 31 26H17C15.6739 26 14.4021 26.5268 13.4645 27.4645C12.5268 28.4021 12 29.6739 12 31C12 32.3261 12.5268 33.5979 13.4645 34.5355C14.4021 35.4732 15.6739 36 17 36H26C26.5304 36 27.0391 36.2107 27.4142 36.5858C27.7893 36.9609 28 37.4696 28 38C28 38.5304 27.7893 39.0391 27.4142 39.4142C27.0391 39.7893 26.5304 40 26 40H17C14.6131 40 12.3239 39.0518 10.636 37.364C8.94821 35.6761 8 33.3869 8 31C8 28.6131 8.94821 26.3239 10.636 24.636C12.3239 22.9482 14.6131 22 17 22H31C32.3261 22 33.5979 21.4732 34.5355 20.5355C35.4732 19.5979 36 18.3261 36 17C36 15.6739 35.4732 14.4021 34.5355 13.4645C33.5979 12.5268 32.3261 12 31 12H22C21.4696 12 20.9609 11.7893 20.5858 11.4142C20.2107 11.0391 20 10.5304 20 10C20 9.46957 20.2107 8.96086 20.5858 8.58579C20.9609 8.21071 21.4696 8 22 8H31ZM12 4C13.5913 4 15.1174 4.63214 16.2426 5.75736C17.3679 6.88258 18 8.4087 18 10C18 11.5913 17.3679 13.1174 16.2426 14.2426C15.1174 15.3679 13.5913 16 12 16C10.4087 16 8.88258 15.3679 7.75736 14.2426C6.63214 13.1174 6 11.5913 6 10C6 8.4087 6.63214 6.88258 7.75736 5.75736C8.88258 4.63214 10.4087 4 12 4Z" fill="#F5F5F5"/>
</svg>
